<svg width="228" height="24" viewBox="0 0 228 24" fill="none" xmlns="http://www.w3.org/2000/svg">
<g filter="url(#filter0_d)">
<path d="M5.53572 7.742H6.86572L6.59972 5.424L8.49972 6.811L9.18372 5.652L7.01772 4.702L9.18372 3.752L8.49972 2.593L6.59972 3.98L6.86572 1.662H5.53572L5.80172 3.98L3.90172 2.593L3.21772 3.752L5.38372 4.702L3.21772 5.652L3.90172 6.811L5.80172 5.424L5.53572 7.742ZM11.9898 15H14.3268V9.395H20.6728V15H23.0098V1.7H20.6728V7.229H14.3268V1.7H11.9898V15ZM34.5763 15V9.053C34.5763 6.374 33.1323 4.816 30.1683 4.816C28.5343 4.816 27.4513 5.158 26.3493 5.652L26.9763 7.495C27.8883 7.115 28.7243 6.868 29.8453 6.868C31.4413 6.868 32.3153 7.628 32.3153 9.015V9.205C31.5363 8.958 30.7573 8.787 29.5413 8.787C27.2043 8.787 25.4753 9.851 25.4753 12.074V12.112C25.4753 14.126 27.1473 15.209 29.0473 15.209C30.5673 15.209 31.6123 14.582 32.2963 13.765V15H34.5763ZM32.3533 11.371C32.3533 12.625 31.2133 13.48 29.6933 13.48C28.6103 13.48 27.7553 12.948 27.7553 11.998V11.96C27.7553 10.991 28.6103 10.402 30.0543 10.402C30.9473 10.402 31.7643 10.573 32.3533 10.801V11.371ZM40.7497 15.19C42.8397 15.19 44.4737 14.145 44.4737 12.036V11.998C44.4737 10.193 42.8207 9.528 41.3577 9.072C40.1797 8.692 39.0967 8.388 39.0967 7.666V7.628C39.0967 7.039 39.6097 6.621 40.5027 6.621C41.3387 6.621 42.3647 6.982 43.3337 7.571L44.2457 5.937C43.1817 5.234 41.8137 4.797 40.5597 4.797C38.5647 4.797 36.9877 5.956 36.9877 7.856V7.894C36.9877 9.813 38.6407 10.421 40.1227 10.839C41.3007 11.2 42.3647 11.466 42.3647 12.245V12.283C42.3647 12.948 41.7947 13.366 40.8067 13.366C39.7807 13.366 38.6027 12.948 37.5197 12.131L36.4937 13.689C37.7477 14.677 39.3247 15.19 40.7497 15.19ZM49.9882 15.171C50.8432 15.171 51.4892 14.981 52.0592 14.658V12.777C51.6032 13.005 51.1472 13.119 50.6342 13.119C49.8552 13.119 49.3992 12.758 49.3992 11.865V6.944H52.0972V4.968H49.3992V2.213H47.1002V4.968H45.8272V6.944H47.1002V12.226C47.1002 14.43 48.2972 15.171 49.9882 15.171ZM62.8351 15V9.053C62.8351 6.374 61.3911 4.816 58.4271 4.816C56.7931 4.816 55.7101 5.158 54.6081 5.652L55.2351 7.495C56.1471 7.115 56.9831 6.868 58.1041 6.868C59.7001 6.868 60.5741 7.628 60.5741 9.015V9.205C59.7951 8.958 59.0161 8.787 57.8001 8.787C55.4631 8.787 53.7341 9.851 53.7341 12.074V12.112C53.7341 14.126 55.4061 15.209 57.3061 15.209C58.8261 15.209 59.8711 14.582 60.5551 13.765V15H62.8351ZM60.6121 11.371C60.6121 12.625 59.4721 13.48 57.9521 13.48C56.8691 13.48 56.0141 12.948 56.0141 11.998V11.96C56.0141 10.991 56.8691 10.402 58.3131 10.402C59.2061 10.402 60.0231 10.573 60.6121 10.801V11.371ZM71.3038 3.429H73.7738V1.244H71.3038V3.429ZM70.7718 18.097C72.6528 18.097 73.6978 17.166 73.6978 15.133V4.968H71.3988V15C71.3988 15.874 70.9618 16.216 70.3158 16.216C70.1068 16.216 69.8978 16.197 69.6698 16.159V18.002C70.0308 18.059 70.3348 18.097 70.7718 18.097ZM80.1603 15.209C81.7183 15.209 82.6493 14.392 83.2953 13.442V15H85.5943V4.968H83.2953V10.63C83.2953 12.188 82.3643 13.119 81.0343 13.119C79.6663 13.119 78.8873 12.226 78.8873 10.668V4.968H76.5883V11.352C76.5883 13.689 77.8993 15.209 80.1603 15.209ZM88.6175 15H90.9165V1.13H88.6175V15ZM93.9591 3.429H96.4291V1.244H93.9591V3.429ZM94.0541 15H96.3531V4.968H94.0541V15ZM104.127 15.228C107.224 15.228 109.504 12.853 109.504 10.003V9.965C109.504 7.096 107.243 4.759 104.165 4.759C101.087 4.759 98.8066 7.134 98.8066 10.003V10.041C98.8066 12.891 101.068 15.228 104.127 15.228ZM104.165 13.233C102.379 13.233 101.106 11.751 101.106 10.003V9.965C101.106 8.217 102.284 6.773 104.127 6.773C105.932 6.773 107.205 8.236 107.205 10.003V10.041C107.205 11.77 106.027 13.233 104.165 13.233ZM117.028 15H126.642V12.948H120.315L123.051 10.668C125.407 8.749 126.509 7.609 126.509 5.519V5.481C126.509 3.106 124.723 1.51 122.12 1.51C119.745 1.51 118.491 2.517 117.218 4.303L118.871 5.595C119.897 4.265 120.733 3.6 121.949 3.6C123.165 3.6 124.096 4.36 124.096 5.671C124.096 6.868 123.431 7.723 121.607 9.262L117.028 13.157V15ZM133.526 15.228C136.471 15.228 138.447 13.442 138.447 10.725V10.687C138.447 7.875 136.414 6.507 133.83 6.507C132.937 6.507 132.348 6.659 131.721 6.887L131.93 3.771H137.858V1.7H129.916L129.536 8.217L130.942 9.148C131.626 8.825 132.443 8.559 133.393 8.559C135.008 8.559 136.148 9.414 136.148 10.763V10.801C136.148 12.188 135.103 13.1 133.507 13.1C132.272 13.1 131.151 12.492 130.087 11.504L128.643 13.195C129.897 14.411 131.493 15.228 133.526 15.228ZM150.851 15.209C152.485 15.209 153.53 14.373 154.271 13.328V15H156.57V1.13H154.271V6.526C153.549 5.595 152.504 4.759 150.851 4.759C148.457 4.759 146.196 6.64 146.196 9.965V10.003C146.196 13.328 148.495 15.209 150.851 15.209ZM151.402 13.214C149.844 13.214 148.514 11.941 148.514 10.003V9.965C148.514 7.97 149.825 6.754 151.402 6.754C152.941 6.754 154.309 8.027 154.309 9.965V10.003C154.309 11.922 152.941 13.214 151.402 13.214ZM164.036 15.228C165.879 15.228 167.19 14.487 168.14 13.347L166.791 12.15C165.993 12.929 165.195 13.347 164.074 13.347C162.592 13.347 161.433 12.435 161.186 10.801H168.558C168.577 10.573 168.596 10.364 168.596 10.155C168.596 7.267 166.981 4.759 163.789 4.759C160.92 4.759 158.887 7.115 158.887 9.984V10.022C158.887 13.119 161.129 15.228 164.036 15.228ZM161.167 9.281C161.376 7.723 162.364 6.64 163.77 6.64C165.29 6.64 166.164 7.799 166.316 9.281H161.167ZM176.088 15H185.702V12.948H179.375L182.111 10.668C184.467 8.749 185.569 7.609 185.569 5.519V5.481C185.569 3.106 183.783 1.51 181.18 1.51C178.805 1.51 177.551 2.517 176.278 4.303L177.931 5.595C178.957 4.265 179.793 3.6 181.009 3.6C182.225 3.6 183.156 4.36 183.156 5.671C183.156 6.868 182.491 7.723 180.667 9.262L176.088 13.157V15ZM193.668 15.228C197.164 15.228 199.482 12.15 199.482 8.35V8.312C199.482 4.512 197.183 1.472 193.706 1.472C190.21 1.472 187.892 4.55 187.892 8.35V8.388C187.892 12.188 190.172 15.228 193.668 15.228ZM193.706 13.119C191.635 13.119 190.305 10.972 190.305 8.35V8.312C190.305 5.671 191.616 3.581 193.668 3.581C195.72 3.581 197.069 5.728 197.069 8.35V8.388C197.069 11.01 195.777 13.119 193.706 13.119ZM203.847 15H206.165V1.605H204.531L200.959 2.745L201.453 4.645L203.847 3.98V15ZM213.68 15.228C217.252 15.228 219.38 12.264 219.38 7.989V7.951C219.38 5.329 218.753 3.866 217.765 2.878C216.834 1.947 215.751 1.472 214.079 1.472C211.134 1.472 209.12 3.467 209.12 6.07V6.108C209.12 8.673 211.001 10.326 213.832 10.326C215.257 10.326 216.283 9.718 216.948 8.92C216.872 11.371 215.694 13.1 213.737 13.1C212.597 13.1 211.704 12.701 210.697 11.846L209.424 13.632C210.545 14.563 211.837 15.228 213.68 15.228ZM214.174 8.369C212.521 8.369 211.457 7.381 211.457 5.994V5.956C211.457 4.588 212.445 3.486 214.098 3.486C215.789 3.486 216.872 4.55 216.872 5.937V5.975C216.872 7.267 215.865 8.369 214.174 8.369ZM221.574 15H224.101V12.397H221.574V15Z" fill="white"/>
</g>
<defs>
<filter id="filter0_d" x="0.217773" y="0.129883" width="226.883" height="22.967" filterUnits="userSpaceOnUse" color-interpolation-filters="sRGB">
<feFlood flood-opacity="0" result="BackgroundImageFix"/>
<feColorMatrix in="SourceAlpha" type="matrix" values="0 0 0 0 0 0 0 0 0 0 0 0 0 0 0 0 0 0 127 0"/>
<feOffset dy="2"/>
<feGaussianBlur stdDeviation="1.5"/>
<feColorMatrix type="matrix" values="0 0 0 0 0 0 0 0 0 0 0 0 0 0 0 0 0 0 0.6 0"/>
<feBlend mode="normal" in2="BackgroundImageFix" result="effect1_dropShadow"/>
<feBlend mode="normal" in="SourceGraphic" in2="effect1_dropShadow" result="shape"/>
</filter>
</defs>
</svg>
