<svg width="165" height="149" viewBox="0 0 165 149" fill="none" xmlns="http://www.w3.org/2000/svg">
<g filter="url(#filter0_dd)">
<path d="M50.8394 18H53.1764V12.395H59.5224V18H61.8594V4.7H59.5224V10.229H53.1764V4.7H50.8394V18ZM64.1349 18H66.5289L67.8969 14.789H74.1859L75.5349 18H78.0049L72.1529 4.605H69.9869L64.1349 18ZM68.7519 12.718L71.0319 7.398L73.3309 12.718H68.7519ZM84.7366 18.19C87.5296 18.19 89.4866 16.708 89.4866 14.219V14.181C89.4866 11.977 88.0236 10.97 85.2116 10.286C82.6656 9.678 82.0576 9.222 82.0576 8.196V8.158C82.0576 7.284 82.8556 6.581 84.2236 6.581C85.4396 6.581 86.6366 7.056 87.8336 7.949L89.0876 6.182C87.7386 5.099 86.1996 4.51 84.2616 4.51C81.6206 4.51 79.7206 6.087 79.7206 8.367V8.405C79.7206 10.856 81.3166 11.692 84.1476 12.376C86.6176 12.946 87.1496 13.459 87.1496 14.409V14.447C87.1496 15.454 86.2376 16.119 84.7936 16.119C83.1406 16.119 81.8676 15.492 80.5946 14.39L79.1886 16.062C80.7846 17.487 82.7036 18.19 84.7366 18.19ZM95.2246 18H97.5806V6.866H101.799V4.7H91.0066V6.866H95.2246V18ZM101.43 18H103.824L105.192 14.789H111.481L112.83 18H115.3L109.448 4.605H107.282L101.43 18ZM106.047 12.718L108.327 7.398L110.626 12.718H106.047ZM26.8832 84H36.4532L53.7232 51.88V45.5H26.0032V52.815H44.0982L26.8832 84ZM75.2617 84.66C85.5467 84.66 92.4217 75.915 92.4217 64.75V64.64C92.4217 53.475 85.5467 44.84 75.3717 44.84C65.1417 44.84 58.2117 53.585 58.2117 64.75V64.86C58.2117 76.025 64.9767 84.66 75.2617 84.66ZM75.3717 77.015C70.2567 77.015 66.9017 71.79 66.9017 64.75V64.64C66.9017 57.6 70.2017 52.485 75.2617 52.485C80.3217 52.485 83.7317 57.765 83.7317 64.75V64.86C83.7317 71.845 80.4867 77.015 75.3717 77.015ZM107.187 64.75C112.797 64.75 116.592 60.295 116.592 54.905V54.795C116.592 49.405 112.852 45.06 107.297 45.06C101.687 45.06 97.8925 49.46 97.8925 54.905V55.015C97.8925 60.405 101.632 64.75 107.187 64.75ZM107.187 50.065C109.387 50.065 110.817 52.32 110.817 54.905V55.015C110.817 57.49 109.607 59.745 107.297 59.745C105.097 59.745 103.667 57.49 103.667 54.905V54.795C103.667 52.265 104.877 50.065 107.187 50.065ZM117.142 63.265L101.742 84H108.287L120.992 66.235L136.392 45.5H129.847L117.142 63.265ZM130.837 84.44C136.447 84.44 140.242 79.985 140.242 74.595V74.485C140.242 69.095 136.502 64.75 130.947 64.75C125.337 64.75 121.542 69.15 121.542 74.595V74.705C121.542 80.095 125.282 84.44 130.837 84.44ZM130.947 79.435C128.747 79.435 127.317 77.18 127.317 74.595V74.485C127.317 71.955 128.527 69.755 130.837 69.755C133.037 69.755 134.467 72.01 134.467 74.595V74.705C134.467 77.18 133.257 79.435 130.947 79.435ZM5.7515 124H10.7105C14.8905 124 17.7785 121.093 17.7785 117.35V117.312C17.7785 113.569 14.8905 110.7 10.7105 110.7H5.7515V124ZM8.0885 121.872V112.828H10.7105C13.5035 112.828 15.3275 114.747 15.3275 117.35V117.388C15.3275 119.991 13.5035 121.872 10.7105 121.872H8.0885ZM20.6138 124H30.5698V121.91H22.9508V118.338H29.6198V116.248H22.9508V112.79H30.4748V110.7H20.6138V124ZM39.0386 124H43.9976C48.1776 124 51.0656 121.093 51.0656 117.35V117.312C51.0656 113.569 48.1776 110.7 43.9976 110.7H39.0386V124ZM41.3756 121.872V112.828H43.9976C46.7906 112.828 48.6146 114.747 48.6146 117.35V117.388C48.6146 119.991 46.7906 121.872 43.9976 121.872H41.3756ZM53.9009 124H63.8569V121.91H56.2379V118.338H62.9069V116.248H56.2379V112.79H63.7619V110.7H53.9009V124ZM71.2844 124.19C74.0774 124.19 76.0344 122.708 76.0344 120.219V120.181C76.0344 117.977 74.5714 116.97 71.7594 116.286C69.2134 115.678 68.6054 115.222 68.6054 114.196V114.158C68.6054 113.284 69.4034 112.581 70.7714 112.581C71.9874 112.581 73.1844 113.056 74.3814 113.949L75.6354 112.182C74.2864 111.099 72.7474 110.51 70.8094 110.51C68.1684 110.51 66.2684 112.087 66.2684 114.367V114.405C66.2684 116.856 67.8644 117.692 70.6954 118.376C73.1654 118.946 73.6974 119.459 73.6974 120.409V120.447C73.6974 121.454 72.7854 122.119 71.3414 122.119C69.6884 122.119 68.4154 121.492 67.1424 120.39L65.7364 122.062C67.3324 123.487 69.2514 124.19 71.2844 124.19ZM84.9578 124.228C87.4468 124.228 88.9668 123.316 90.3538 121.872L88.8528 120.352C87.7128 121.416 86.6678 122.081 85.0338 122.081C82.4878 122.081 80.6448 119.953 80.6448 117.35V117.312C80.6448 114.709 82.4878 112.619 85.0338 112.619C86.5538 112.619 87.6938 113.284 88.7578 114.272L90.2588 112.543C88.9858 111.327 87.5038 110.472 85.0528 110.472C81.0248 110.472 78.1938 113.569 78.1938 117.35V117.388C78.1938 121.207 81.0818 124.228 84.9578 124.228ZM98.2631 124.209C101.74 124.209 103.982 122.214 103.982 118.243V110.7H101.645V118.357C101.645 120.808 100.372 122.062 98.3011 122.062C96.2111 122.062 94.9381 120.732 94.9381 118.262V110.7H92.6011V118.357C92.6011 122.214 94.8051 124.209 98.2631 124.209ZM107.19 124H117.146V121.91H109.527V118.338H116.196V116.248H109.527V112.79H117.051V110.7H107.19V124ZM119.918 124H122.217V114.538L129.551 124H131.508V110.7H129.209V119.896L122.084 110.7H119.918V124ZM138.197 124H140.553V112.866H144.771V110.7H133.979V112.866H138.197V124ZM152.872 124.228C156.957 124.228 159.845 121.093 159.845 117.35V117.312C159.845 113.569 156.995 110.472 152.91 110.472C148.825 110.472 145.937 113.607 145.937 117.35V117.388C145.937 121.131 148.787 124.228 152.872 124.228ZM152.91 122.081C150.269 122.081 148.388 119.934 148.388 117.35V117.312C148.388 114.728 150.231 112.619 152.872 112.619C155.513 112.619 157.394 114.766 157.394 117.35V117.388C157.394 119.972 155.551 122.081 152.91 122.081Z" fill="white"/>
</g>
<defs>
<filter id="filter0_dd" x="0.751465" y="3.50977" width="164.093" height="129.718" filterUnits="userSpaceOnUse" color-interpolation-filters="sRGB">
<feFlood flood-opacity="0" result="BackgroundImageFix"/>
<feColorMatrix in="SourceAlpha" type="matrix" values="0 0 0 0 0 0 0 0 0 0 0 0 0 0 0 0 0 0 127 0"/>
<feOffset dy="4"/>
<feGaussianBlur stdDeviation="2.5"/>
<feColorMatrix type="matrix" values="0 0 0 0 0.329412 0 0 0 0 0.278431 0 0 0 0 0.439216 0 0 0 0.4 0"/>
<feBlend mode="normal" in2="BackgroundImageFix" result="effect1_dropShadow"/>
<feColorMatrix in="SourceAlpha" type="matrix" values="0 0 0 0 0 0 0 0 0 0 0 0 0 0 0 0 0 0 127 0"/>
<feOffset dy="4"/>
<feGaussianBlur stdDeviation="2"/>
<feColorMatrix type="matrix" values="0 0 0 0 0 0 0 0 0 0 0 0 0 0 0 0 0 0 0.25 0"/>
<feBlend mode="normal" in2="effect1_dropShadow" result="effect2_dropShadow"/>
<feBlend mode="normal" in="SourceGraphic" in2="effect2_dropShadow" result="shape"/>
</filter>
</defs>
</svg>
