<?xml version="1.0" encoding="UTF-8"?>
<svg width="286px" height="74px" viewBox="0 0 286 74" version="1.1" xmlns="http://www.w3.org/2000/svg" xmlns:xlink="http://www.w3.org/1999/xlink">
    <!-- Generator: Sketch 54.1 (76490) - https://sketchapp.com -->
    <title>centro</title>
    <desc>Created with Sketch.</desc>
    <defs>
        <polygon id="path-1" points="0.232695477 0.12489776 38.1764155 0.12489776 38.1764155 41.9865623 0.232695477 41.9865623"></polygon>
        <polygon id="path-3" points="0.000861926309 0.12489776 37.9445819 0.12489776 37.9445819 41.9865623 0.000861926309 41.9865623"></polygon>
        <polygon id="path-5" points="0.103603542 0.236837686 21.970674 0.236837686 21.970674 21.9248534 0.103603542 21.9248534"></polygon>
        <polygon id="path-7" points="0.143818561 0.0240188 13.1586596 0.0240188 13.1586596 21.43216 0.143818561 21.43216"></polygon>
        <polygon id="path-9" points="0.232695477 0.124739361 38.1764155 0.124739361 38.1764155 41.9333136 0.232695477 41.9333136"></polygon>
        <polygon id="path-11" points="0.000861926309 0.124739361 37.9445819 0.124739361 37.9445819 41.9333136 0.000861926309 41.9333136"></polygon>
        <polygon id="path-13" points="0.103603542 0.236537321 21.970674 0.236537321 21.970674 21.8970476 0.103603542 21.8970476"></polygon>
        <polygon id="path-15" points="0.143818561 0.0239883387 13.1586596 0.0239883387 13.1586596 21.4049791 0.143818561 21.4049791"></polygon>
    </defs>
    <g id="centro" stroke="none" stroke-width="1" fill="none" fill-rule="evenodd">
        <g id="Group" transform="translate(30.000000, 1.000000)">
            <g id="Group-39" opacity="0.292061942" transform="translate(1.899160, 0.948052)">
                <path d="M13.4736074,24.3502595 C20.4278752,24.3502595 23.4781092,22.1533399 23.4781092,16.2952162 C23.4781092,10.4368461 20.3059742,8.11798489 13.4736074,8.11798489 L10.7895689,8.11798489 L10.7895689,24.3502595 L13.4736074,24.3502595 Z M32.8723672,42.1079126 L22.9902589,42.1079126 L16.157646,31.6120665 C15.36492,31.7340081 14.5106279,31.7951021 13.7176557,31.7951021 L10.7895689,31.7951021 L10.7895689,42.1079126 L2.24935678,42.1079126 L2.24935678,0.612540988 L13.7176557,0.612540988 C25.3083482,0.612540988 32.2623696,6.16544121 32.2623696,16.2952162 C32.2623696,22.7637869 29.3953565,26.8521562 24.2713277,29.1710174 L32.8723672,42.1079126 Z" id="Fill-1" fill="#000000"></path>
                <polygon id="Fill-3" fill="#000000" points="41.229851 0.612467084 68.6809726 0.612467084 68.6809726 8.11815733 49.7700631 8.11815733 49.7700631 21.2991821 66.423957 21.2991821 66.423957 28.6218368 49.7700631 28.6218368 49.7700631 34.6021485 69.5350184 34.6021485 69.5350184 42.1078387 41.229851 42.1078387"></polygon>
                <path d="M95.3999001,34.6020499 C98.8771571,34.6020499 101.073099,32.2831887 101.073099,28.8661141 C101.073099,25.5096408 98.8160835,23.191026 94.9120498,23.191026 L87.5305129,23.191026 L87.5305129,34.6020499 L95.3999001,34.6020499 Z M94.1188314,15.9289726 C96.8639435,15.9289726 98.6941825,14.403594 98.6941825,12.0236389 C98.6941825,9.64393005 97.1690654,8.1180588 94.5458543,8.1180588 L87.5305129,8.1180588 L87.5305129,15.9289726 L94.1188314,15.9289726 Z M78.9903008,0.612368545 L95.0339508,0.612368545 C102.781437,0.612368545 107.112494,5.49422044 107.112494,11.3523442 C107.112494,15.1970766 104.855478,17.820915 101.256074,18.9802224 C106.929273,20.3228117 109.674631,24.1062038 109.674631,29.2930329 C109.674631,36.6770279 104.428209,42.1079865 95.7658494,42.1079865 L78.9903008,42.1079865 L78.9903008,0.612368545 Z" id="Fill-5" fill="#000000"></path>
                <g id="Group-9" transform="translate(113.528008, 0.121449)">
                    <mask id="mask-2" fill="white">
                        <use xlink:href="#path-1"></use>
                    </mask>
                    <g id="Clip-8"></g>
                    <path d="M24.2068064,30.1481268 L21.2176459,22.9474137 C19.9974045,20.0183519 18.716582,15.5025711 18.716582,15.5025711 C18.716582,15.5025711 17.4965869,20.0183519 16.2763455,22.9474137 L13.2871851,30.1481268 L24.2068064,30.1481268 Z M18.4725338,0.124873126 L19.2046786,0.124873126 L38.1764155,41.9865623 L29.2089341,41.9865623 L27.2567942,37.2874996 L10.4201719,37.2874996 L8.46803196,41.9865623 L0.232695477,41.9865623 L18.4725338,0.124873126 Z" id="Fill-7" fill="#000000" mask="url(#mask-2)"></path>
                </g>
                <path d="M155.303064,34.8462287 L162.257086,30.6356715 C163.599228,33.0153803 164.81947,35.0292643 167.74731,35.0292643 C170.553742,35.0292643 172.322661,33.9308045 172.322661,29.6591533 L172.322661,0.612417814 L180.862873,0.612417814 L180.862873,29.7810949 C180.862873,38.6296209 175.677771,42.6571425 168.113506,42.6571425 C161.281139,42.6571425 157.316032,39.1178799 155.303064,34.8462287" id="Fill-10" fill="#000000"></path>
                <g id="Group-14" transform="translate(185.437289, 0.121449)">
                    <mask id="mask-4" fill="white">
                        <use xlink:href="#path-3"></use>
                    </mask>
                    <g id="Clip-13"></g>
                    <path d="M23.9749728,30.1481268 L20.9858124,22.9474137 C19.765571,20.0183519 18.4847485,15.5025711 18.4847485,15.5025711 C18.4847485,15.5025711 17.2647534,20.0183519 16.044512,22.9474137 L13.0553515,30.1481268 L23.9749728,30.1481268 Z M18.2407002,0.124873126 L18.972845,0.124873126 L37.9445819,41.9865623 L28.9771006,41.9865623 L27.0249606,37.2874996 L10.1883384,37.2874996 L8.23619841,41.9865623 L0.000861926309,41.9865623 L18.2407002,0.124873126 Z" id="Fill-12" fill="#000000" mask="url(#mask-4)"></path>
                </g>
                <path d="M0,66.6261559 L3.54103954,64.5755662 C4.47265875,66.0977423 5.68403461,67.2164025 7.82727594,67.2164025 C9.62894819,67.2164025 10.7782654,66.3155127 10.7782654,65.0724475 C10.7782654,63.5813111 9.59791885,63.0528975 7.60982425,62.1830474 L6.52281204,61.7167132 C3.38564654,60.3807752 1.3044639,58.702908 1.3044639,55.1606893 C1.3044639,51.8983204 3.78952058,49.4124362 7.67188294,49.4124362 C10.43645,49.4124362 12.4242983,50.3756516 13.8533722,52.8925755 L10.4677256,55.0675703 C9.7222825,53.7313859 8.91453442,53.203465 7.67188294,53.203465 C6.39844839,53.203465 5.59094657,54.0112358 5.59094657,55.0675703 C5.59094657,56.3727149 6.39844839,56.9006358 8.26217933,57.7086529 L9.34943781,58.1747408 C13.0456241,59.7594889 15.1268067,61.3752767 15.1268067,65.0103681 C15.1268067,68.9255557 12.0516999,71.0692644 7.92061025,71.0692644 C3.88260862,71.0692644 1.27343456,69.1430798 0,66.6261559" id="Fill-15" fill="#000000"></path>
                <g id="Group-19" transform="translate(18.469849, 49.144436)">
                    <mask id="mask-6" fill="white">
                        <use xlink:href="#path-5"></use>
                    </mask>
                    <g id="Clip-18"></g>
                    <path d="M17.497769,11.081018 C17.497769,7.13479071 14.8885949,4.12098558 11.0370156,4.12098558 C7.18543636,4.12098558 4.57626229,7.13479071 4.57626229,11.081018 C4.57626229,15.0272452 7.18543636,18.0410504 11.0370156,18.0410504 C14.8885949,18.0410504 17.497769,15.0272452 17.497769,11.081018 M0.103603542,11.081018 C0.103603542,4.83539092 4.94910699,0.236837686 11.0370156,0.236837686 C17.1249243,0.236837686 21.970674,4.83539092 21.970674,11.081018 C21.970674,17.3263987 17.1249243,21.9249519 11.0370156,21.9249519 C4.94910699,21.9249519 0.103603542,17.3263987 0.103603542,11.081018" id="Fill-17" fill="#000000" mask="url(#mask-6)"></path>
                </g>
                <path d="M53.2672429,66.9680112 C55.0376395,66.9680112 56.1559274,65.7872716 56.1559274,64.0473251 C56.1559274,62.3384182 55.0066102,61.1576787 53.0187619,61.1576787 L49.2602706,61.1576787 L49.2602706,66.9680112 L53.2672429,66.9680112 Z M52.6151341,57.4600152 C54.012686,57.4600152 54.9447978,56.6832842 54.9447978,55.4715049 C54.9447978,54.2597256 54.168079,53.4829946 52.8323395,53.4829946 L49.2602706,53.4829946 L49.2602706,57.4600152 L52.6151341,57.4600152 Z M44.9117293,49.6611724 L53.0808206,49.6611724 C57.0257341,49.6611724 59.2310342,52.1468103 59.2310342,55.1295757 C59.2310342,57.0872927 58.081717,58.4232307 56.2490154,59.0137236 C59.1379461,59.6970893 60.5357443,61.6237666 60.5357443,64.2646028 C60.5357443,68.0243457 57.8642653,70.7898333 53.4536653,70.7898333 L44.9117293,70.7898333 L44.9117293,49.6611724 Z" id="Fill-20" fill="#000000"></path>
                <path d="M70.3494403,61.7480485 C73.8904798,61.7480485 75.4434248,60.6293882 75.4434248,57.6466228 C75.4434248,54.663611 73.8281749,53.4828714 70.3494403,53.4828714 L68.9826714,53.4828714 L68.9826714,61.7480485 L70.3494403,61.7480485 Z M80.2268695,70.7897102 L75.1949437,70.7897102 L71.7162091,65.4454656 C71.3123351,65.5075449 70.8774317,65.538831 70.4735577,65.538831 L68.9826714,65.538831 L68.9826714,70.7897102 L64.6341301,70.7897102 L64.6341301,49.6612956 L70.4735577,49.6612956 C76.3752902,49.6612956 79.9163298,52.4886163 79.9163298,57.6466228 C79.9163298,60.9400314 78.4564729,63.0219071 75.8472988,64.2026466 L80.2268695,70.7897102 Z" id="Fill-22" fill="#000000"></path>
                <polygon id="Fill-24" fill="#000000" points="84.4812885 49.661197 98.4587781 49.661197 98.4587781 53.4830192 88.8298299 53.4830192 88.8298299 60.1944878 97.3097072 60.1944878 97.3097072 63.9229446 88.8298299 63.9229446 88.8298299 66.9680358 98.8936815 66.9680358 98.8936815 70.789858 84.4812885 70.789858"></polygon>
                <path d="M117.062768,61.7480485 C120.603807,61.7480485 122.156752,60.6293882 122.156752,57.6466228 C122.156752,54.663611 120.541503,53.4828714 117.062768,53.4828714 L115.695999,53.4828714 L115.695999,61.7480485 L117.062768,61.7480485 Z M126.940197,70.7897102 L121.908271,70.7897102 L118.429537,65.4454656 C118.025663,65.5075449 117.590759,65.538831 117.186885,65.538831 L115.695999,65.538831 L115.695999,70.7897102 L111.347458,70.7897102 L111.347458,49.6612956 L117.186885,49.6612956 C123.088618,49.6612956 126.629657,52.4886163 126.629657,57.6466228 C126.629657,60.9400314 125.169801,63.0219071 122.560626,64.2026466 L126.940197,70.7897102 Z" id="Fill-26" fill="#000000"></path>
                <polygon id="Fill-28" fill="#000000" points="131.19437 49.661197 145.171859 49.661197 145.171859 53.4830192 135.542911 53.4830192 135.542911 60.1944878 144.022789 60.1944878 144.022789 63.9229446 135.542911 63.9229446 135.542911 66.9680358 145.606763 66.9680358 145.606763 70.789858 131.19437 70.789858"></polygon>
                <path d="M158.775544,66.9680112 C160.545941,66.9680112 161.664228,65.7872716 161.664228,64.0473251 C161.664228,62.3384182 160.514911,61.1576787 158.527063,61.1576787 L154.768572,61.1576787 L154.768572,66.9680112 L158.775544,66.9680112 Z M158.123435,57.4600152 C159.520987,57.4600152 160.453099,56.6832842 160.453099,55.4715049 C160.453099,54.2597256 159.67638,53.4829946 158.34064,53.4829946 L154.768572,53.4829946 L154.768572,57.4600152 L158.123435,57.4600152 Z M150.42003,49.6611724 L158.589122,49.6611724 C162.534035,49.6611724 164.739335,52.1468103 164.739335,55.1295757 C164.739335,57.0872927 163.590018,58.4232307 161.757316,59.0137236 C164.646247,59.6970893 166.044045,61.6237666 166.044045,64.2646028 C166.044045,68.0243457 163.372566,70.7898333 158.961966,70.7898333 L150.42003,70.7898333 L150.42003,49.6611724 Z" id="Fill-30" fill="#000000"></path>
                <path d="M180.330893,64.7619521 L178.808731,61.0953283 C178.187651,59.6041919 177.535296,57.3047922 177.535296,57.3047922 C177.535296,57.3047922 176.91397,59.6041919 176.292891,61.0953283 L174.770975,64.7619521 L180.330893,64.7619521 Z M177.411179,49.4746633 L177.783777,49.4746633 L187.443755,70.7898087 L182.877762,70.7898087 L181.884084,68.3972899 L173.310872,68.3972899 L172.316948,70.7898087 L168.1238,70.7898087 L177.411179,49.4746633 Z" id="Fill-32" fill="#000000"></path>
                <g id="Group-36" transform="translate(189.131259, 49.637129)">
                    <mask id="mask-8" fill="white">
                        <use xlink:href="#path-7"></use>
                    </mask>
                    <g id="Clip-35"></g>
                    <path d="M0.143818561,17.4550163 L3.6848581,15.3113076 C4.36799627,16.5230868 4.98932201,17.5483817 6.48020826,17.5483817 C7.90903581,17.5483817 8.80987194,16.9889284 8.80987194,14.8139336 L8.80987194,0.0240188 L13.1586596,0.0240188 L13.1586596,14.876013 C13.1586596,19.3814472 10.5182099,21.4322832 6.6666306,21.4322832 C3.18764976,21.4322832 1.16877207,19.630011 0.143818561,17.4550163" id="Fill-34" fill="#000000" mask="url(#mask-8)"></path>
                </g>
                <path d="M216.825443,64.7619521 L215.303282,61.0953283 C214.682202,59.6041919 214.029847,57.3047922 214.029847,57.3047922 C214.029847,57.3047922 213.408768,59.6041919 212.787442,61.0953283 L211.265526,64.7619521 L216.825443,64.7619521 Z M213.90573,49.4746633 L214.278328,49.4746633 L223.938306,70.7898087 L219.372559,70.7898087 L218.378388,68.3972899 L209.805423,68.3972899 L208.811499,70.7898087 L204.618351,70.7898087 L213.90573,49.4746633 Z" id="Fill-37" fill="#000000"></path>
            </g>
            <g id="Group-39">
                <path d="M13.4736074,24.3193777 C20.4278752,24.3193777 23.4781092,22.1252443 23.4781092,16.2745501 C23.4781092,10.4236097 20.3059742,8.10768941 13.4736074,8.10768941 L10.7895689,8.10768941 L10.7895689,24.3193777 L13.4736074,24.3193777 Z M32.8723672,42.0545101 L22.9902589,42.0545101 L16.157646,31.5719751 C15.36492,31.6937621 14.5106279,31.7547786 13.7176557,31.7547786 L10.7895689,31.7547786 L10.7895689,42.0545101 L2.24935678,42.0545101 L2.24935678,0.611764144 L13.7176557,0.611764144 C25.3083482,0.611764144 32.2623696,6.15762201 32.2623696,16.2745501 C32.2623696,22.7349172 29.3953565,26.8181015 24.2713277,29.1340218 L32.8723672,42.0545101 Z" id="Fill-1" fill="#FFFFFF"></path>
                <polygon id="Fill-3" fill="#FFFFFF" points="41.229851 0.611690334 68.6809726 0.611690334 68.6809726 8.10786164 49.7700631 8.10786164 49.7700631 21.2721698 66.423957 21.2721698 66.423957 28.5855377 49.7700631 28.5855377 49.7700631 34.558265 69.5350184 34.558265 69.5350184 42.0544363 41.229851 42.0544363"></polygon>
                <path d="M95.3999001,34.5581665 C98.8771571,34.5581665 101.073099,32.2422462 101.073099,28.8295052 C101.073099,25.4772887 98.8160835,23.1616144 94.9120498,23.1616144 L87.5305129,23.1616144 L87.5305129,34.5581665 L95.3999001,34.5581665 Z M94.1188314,15.908771 C96.8639435,15.908771 98.6941825,14.3853269 98.6941825,12.0083901 C98.6941825,9.63169932 97.1690654,8.10776322 94.5458543,8.10776322 L87.5305129,8.10776322 L87.5305129,15.908771 L94.1188314,15.908771 Z M78.9903008,0.61159192 L95.0339508,0.61159192 C102.781437,0.61159192 107.112494,5.48725251 107.112494,11.3379468 C107.112494,15.1778032 104.855478,17.7983139 101.256074,18.9561511 C106.929273,20.2970377 109.674631,24.0756316 109.674631,29.2558826 C109.674631,36.630513 104.428209,42.0545839 95.7658494,42.0545839 L78.9903008,42.0545839 L78.9903008,0.61159192 Z" id="Fill-5" fill="#FFFFFF"></path>
                <g id="Group-9" transform="translate(113.528008, 0.121295)">
                    <mask id="mask-10" fill="white">
                        <use xlink:href="#path-9"></use>
                    </mask>
                    <g id="Clip-8"></g>
                    <path d="M24.2068064,30.109892 L21.2176459,22.9183111 C19.9974045,19.992964 18.716582,15.4829103 18.716582,15.4829103 C18.716582,15.4829103 17.4965869,19.992964 16.2763455,22.9183111 L13.2871851,30.109892 L24.2068064,30.109892 Z M18.4725338,0.124714758 L19.2046786,0.124714758 L38.1764155,41.9333136 L29.2089341,41.9333136 L27.2567942,37.2402104 L10.4201719,37.2402104 L8.46803196,41.9333136 L0.232695477,41.9333136 L18.4725338,0.124714758 Z" id="Fill-7" fill="#FFFFFF" mask="url(#mask-10)"></path>
                </g>
                <path d="M155.303064,34.8020357 L162.257086,30.5968184 C163.599228,32.9735092 164.81947,34.9848391 167.74731,34.9848391 C170.553742,34.9848391 172.322661,33.8877724 172.322661,29.6215387 L172.322661,0.611641127 L180.862873,0.611641127 L180.862873,29.7433256 C180.862873,38.5806296 175.677771,42.6030434 168.113506,42.6030434 C161.281139,42.6030434 157.316032,39.0682694 155.303064,34.8020357" id="Fill-10" fill="#FFFFFF"></path>
                <g id="Group-14" transform="translate(185.437289, 0.121295)">
                    <mask id="mask-12" fill="white">
                        <use xlink:href="#path-11"></use>
                    </mask>
                    <g id="Clip-13"></g>
                    <path d="M23.9749728,30.109892 L20.9858124,22.9183111 C19.765571,19.992964 18.4847485,15.4829103 18.4847485,15.4829103 C18.4847485,15.4829103 17.2647534,19.992964 16.044512,22.9183111 L13.0553515,30.109892 L23.9749728,30.109892 Z M18.2407002,0.124714758 L18.972845,0.124714758 L37.9445819,41.9333136 L28.9771006,41.9333136 L27.0249606,37.2402104 L10.1883384,37.2402104 L8.23619841,41.9333136 L0.000861926309,41.9333136 L18.2407002,0.124714758 Z" id="Fill-12" fill="#FFFFFF" mask="url(#mask-12)"></path>
                </g>
                <path d="M0,66.5416585 L3.54103954,64.4936695 C4.47265875,66.0139151 5.68403461,67.1311566 7.82727594,67.1311566 C9.62894819,67.1311566 10.7782654,66.2314094 10.7782654,64.9899206 C10.7782654,63.5006753 9.59791885,62.9729319 7.60982425,62.1041849 L6.52281204,61.6384421 C3.38564654,60.3041984 1.3044639,58.6284592 1.3044639,55.0907328 C1.3044639,51.8325013 3.78952058,49.3497698 7.67188294,49.3497698 C10.43645,49.3497698 12.4242983,50.3117637 13.8533722,52.8254956 L10.4677256,54.9977319 C9.7222825,53.6632421 8.91453442,53.1359908 7.67188294,53.1359908 C6.39844839,53.1359908 5.59094657,53.942737 5.59094657,54.9977319 C5.59094657,56.3012213 6.39844839,56.8284727 8.26217933,57.635465 L9.34943781,58.1009618 C13.0456241,59.6837001 15.1268067,61.2974387 15.1268067,64.9279199 C15.1268067,68.8381422 12.0516999,70.9791321 7.92061025,70.9791321 C3.88260862,70.9791321 1.27343456,69.0553904 0,66.5416585" id="Fill-15" fill="#FFFFFF"></path>
                <g id="Group-19" transform="translate(18.469849, 49.082109)">
                    <mask id="mask-14" fill="white">
                        <use xlink:href="#path-13"></use>
                    </mask>
                    <g id="Clip-18"></g>
                    <path d="M17.497769,11.0669647 C17.497769,7.12574215 14.8885949,4.11575922 11.0370156,4.11575922 C7.18543636,4.11575922 4.57626229,7.12574215 4.57626229,11.0669647 C4.57626229,15.0081872 7.18543636,18.0181701 11.0370156,18.0181701 C14.8885949,18.0181701 17.497769,15.0081872 17.497769,11.0669647 M0.103603542,11.0669647 C0.103603542,4.82925853 4.94910699,0.236537321 11.0370156,0.236537321 C17.1249243,0.236537321 21.970674,4.82925853 21.970674,11.0669647 C21.970674,17.3044248 17.1249243,21.897146 11.0370156,21.897146 C4.94910699,21.897146 0.103603542,17.3044248 0.103603542,11.0669647" id="Fill-17" fill="#FFFFFF" mask="url(#mask-14)"></path>
                </g>
                <path d="M53.2672429,66.8830803 C55.0376395,66.8830803 56.1559274,65.7038381 56.1559274,63.9660983 C56.1559274,62.2593587 55.0066102,61.0801166 53.0187619,61.0801166 L49.2602706,61.0801166 L49.2602706,66.8830803 L53.2672429,66.8830803 Z M52.6151341,57.3871426 C54.012686,57.3871426 54.9447978,56.6113967 54.9447978,55.4011542 C54.9447978,54.1909118 54.168079,53.4151658 52.8323395,53.4151658 L49.2602706,53.4151658 L49.2602706,57.3871426 L52.6151341,57.3871426 Z M44.9117293,49.5981906 L53.0808206,49.5981906 C57.0257341,49.5981906 59.2310342,52.0806761 59.2310342,55.0596587 C59.2310342,57.0148928 58.081717,58.3491365 56.2490154,58.9388806 C59.1379461,59.6213796 60.5357443,61.5456134 60.5357443,64.1831005 C60.5357443,67.9380751 57.8642653,70.7000555 53.4536653,70.7000555 L44.9117293,70.7000555 L44.9117293,49.5981906 Z" id="Fill-20" fill="#FFFFFF"></path>
                <path d="M70.3494403,61.6697377 C73.8904798,61.6697377 75.4434248,60.5524962 75.4434248,57.5735136 C75.4434248,54.5942849 73.8281749,53.4150428 70.3494403,53.4150428 L68.9826714,53.4150428 L68.9826714,61.6697377 L70.3494403,61.6697377 Z M80.2268695,70.6999325 L75.1949437,70.6999325 L71.7162091,65.3624656 C71.3123351,65.4244663 70.8774317,65.4557126 70.4735577,65.4557126 L68.9826714,65.4557126 L68.9826714,70.6999325 L64.6341301,70.6999325 L64.6341301,49.5983136 L70.4735577,49.5983136 C76.3752902,49.5983136 79.9163298,52.4220486 79.9163298,57.5735136 C79.9163298,60.8627454 78.4564729,62.9419807 75.8472988,64.1212229 L80.2268695,70.6999325 Z" id="Fill-22" fill="#FFFFFF"></path>
                <polygon id="Fill-24" fill="#FFFFFF" points="84.4812885 49.5982152 98.4587781 49.5982152 98.4587781 53.4151904 88.8298299 53.4151904 88.8298299 60.1181473 97.3097072 60.1181473 97.3097072 63.8418756 88.8298299 63.8418756 88.8298299 66.8831049 98.8936815 66.8831049 98.8936815 70.7000801 84.4812885 70.7000801"></polygon>
                <path d="M117.062768,61.6697377 C120.603807,61.6697377 122.156752,60.5524962 122.156752,57.5735136 C122.156752,54.5942849 120.541503,53.4150428 117.062768,53.4150428 L115.695999,53.4150428 L115.695999,61.6697377 L117.062768,61.6697377 Z M126.940197,70.6999325 L121.908271,70.6999325 L118.429537,65.3624656 C118.025663,65.4244663 117.590759,65.4557126 117.186885,65.4557126 L115.695999,65.4557126 L115.695999,70.6999325 L111.347458,70.6999325 L111.347458,49.5983136 L117.186885,49.5983136 C123.088618,49.5983136 126.629657,52.4220486 126.629657,57.5735136 C126.629657,60.8627454 125.169801,62.9419807 122.560626,64.1212229 L126.940197,70.6999325 Z" id="Fill-26" fill="#FFFFFF"></path>
                <polygon id="Fill-28" fill="#FFFFFF" points="131.19437 49.5982152 145.171859 49.5982152 145.171859 53.4151904 135.542911 53.4151904 135.542911 60.1181473 144.022789 60.1181473 144.022789 63.8418756 135.542911 63.8418756 135.542911 66.8831049 145.606763 66.8831049 145.606763 70.7000801 131.19437 70.7000801"></polygon>
                <path d="M158.775544,66.8830803 C160.545941,66.8830803 161.664228,65.7038381 161.664228,63.9660983 C161.664228,62.2593587 160.514911,61.0801166 158.527063,61.0801166 L154.768572,61.0801166 L154.768572,66.8830803 L158.775544,66.8830803 Z M158.123435,57.3871426 C159.520987,57.3871426 160.453099,56.6113967 160.453099,55.4011542 C160.453099,54.1909118 159.67638,53.4151658 158.34064,53.4151658 L154.768572,53.4151658 L154.768572,57.3871426 L158.123435,57.3871426 Z M150.42003,49.5981906 L158.589122,49.5981906 C162.534035,49.5981906 164.739335,52.0806761 164.739335,55.0596587 C164.739335,57.0148928 163.590018,58.3491365 161.757316,58.9388806 C164.646247,59.6213796 166.044045,61.5456134 166.044045,64.1831005 C166.044045,67.9380751 163.372566,70.7000555 158.961966,70.7000555 L150.42003,70.7000555 L150.42003,49.5981906 Z" id="Fill-30" fill="#FFFFFF"></path>
                <path d="M180.330893,64.679819 L178.808731,61.0178453 C178.187651,59.5286001 177.535296,57.2321165 177.535296,57.2321165 C177.535296,57.2321165 176.91397,59.5286001 176.292891,61.0178453 L174.770975,64.679819 L180.330893,64.679819 Z M177.411179,49.4119181 L177.783777,49.4119181 L187.443755,70.7000309 L182.877762,70.7000309 L181.884084,68.3105463 L173.310872,68.3105463 L172.316948,70.7000309 L168.1238,70.7000309 L177.411179,49.4119181 Z" id="Fill-32" fill="#FFFFFF"></path>
                <g id="Group-36" transform="translate(189.131259, 49.574178)">
                    <mask id="mask-16" fill="white">
                        <use xlink:href="#path-15"></use>
                    </mask>
                    <g id="Clip-35"></g>
                    <path d="M0.143818561,17.4328793 L3.6848581,15.2918893 C4.36799627,16.5021317 4.98932201,17.5261263 6.48020826,17.5261263 C7.90903581,17.5261263 8.80987194,16.9673825 8.80987194,14.7951462 L8.80987194,0.0239883387 L13.1586596,0.0239883387 L13.1586596,14.8571468 C13.1586596,19.3568671 10.5182099,21.4051021 6.6666306,21.4051021 C3.18764976,21.4051021 1.16877207,19.6051156 0.143818561,17.4328793" id="Fill-34" fill="#FFFFFF" mask="url(#mask-16)"></path>
                </g>
                <path d="M216.825443,64.679819 L215.303282,61.0178453 C214.682202,59.5286001 214.029847,57.2321165 214.029847,57.2321165 C214.029847,57.2321165 213.408768,59.5286001 212.787442,61.0178453 L211.265526,64.679819 L216.825443,64.679819 Z M213.90573,49.4119181 L214.278328,49.4119181 L223.938306,70.7000309 L219.372559,70.7000309 L218.378388,68.3105463 L209.805423,68.3105463 L208.811499,70.7000309 L204.618351,70.7000309 L213.90573,49.4119181 Z" id="Fill-37" fill="#FFFFFF"></path>
            </g>
        </g>
    </g>
</svg>