<svg width="221" height="152" viewBox="0 0 221 152" fill="none" xmlns="http://www.w3.org/2000/svg">
<g filter="url(#filter0_d)">
<path d="M78.8394 18H81.1764V12.395H87.5224V18H89.8594V4.7H87.5224V10.229H81.1764V4.7H78.8394V18ZM92.1349 18H94.5289L95.8969 14.789H102.186L103.535 18H106.005L100.153 4.605H97.9869L92.1349 18ZM96.7519 12.718L99.0319 7.398L101.331 12.718H96.7519ZM112.737 18.19C115.53 18.19 117.487 16.708 117.487 14.219V14.181C117.487 11.977 116.024 10.97 113.212 10.286C110.666 9.678 110.058 9.222 110.058 8.196V8.158C110.058 7.284 110.856 6.581 112.224 6.581C113.44 6.581 114.637 7.056 115.834 7.949L117.088 6.182C115.739 5.099 114.2 4.51 112.262 4.51C109.621 4.51 107.721 6.087 107.721 8.367V8.405C107.721 10.856 109.317 11.692 112.148 12.376C114.618 12.946 115.15 13.459 115.15 14.409V14.447C115.15 15.454 114.238 16.119 112.794 16.119C111.141 16.119 109.868 15.492 108.595 14.39L107.189 16.062C108.785 17.487 110.704 18.19 112.737 18.19ZM123.225 18H125.581V6.866H129.799V4.7H119.007V6.866H123.225V18ZM129.43 18H131.824L133.192 14.789H139.481L140.83 18H143.3L137.448 4.605H135.282L129.43 18ZM134.047 12.718L136.327 7.398L138.626 12.718H134.047ZM91.5546 84H99.9146V45.225H94.1396L83.0846 48.525L84.8446 55.455L91.5546 53.805V84ZM107.663 84H136.153V76.685H119.378L125.648 71.845C132.468 66.565 135.768 63.375 135.768 56.94V56.83C135.768 49.625 130.488 44.95 122.513 44.95C115.638 44.95 111.953 47.755 108.158 52.925L114.098 57.71C116.958 54.19 118.993 52.54 121.963 52.54C124.988 52.54 127.133 54.3 127.133 57.545C127.133 60.735 125.263 62.825 120.478 66.785L107.663 77.29V84ZM26.3111 124H28.6101V114.5L32.7711 120.732H32.8471L37.0461 114.462V124H39.3831V110.7H36.8941L32.8471 116.989L28.8001 110.7H26.3111V124ZM42.8062 124H52.7622V121.91H45.1432V118.338H51.8122V116.248H45.1432V112.79H52.6672V110.7H42.8062V124ZM55.5347 124H57.8337V114.538L65.1677 124H67.1247V110.7H64.8257V119.896L57.7007 110.7H55.5347V124ZM75.2004 124.19C77.9934 124.19 79.9504 122.708 79.9504 120.219V120.181C79.9504 117.977 78.4874 116.97 75.6754 116.286C73.1294 115.678 72.5214 115.222 72.5214 114.196V114.158C72.5214 113.284 73.3194 112.581 74.6874 112.581C75.9034 112.581 77.1004 113.056 78.2974 113.949L79.5514 112.182C78.2024 111.099 76.6634 110.51 74.7254 110.51C72.0844 110.51 70.1844 112.087 70.1844 114.367V114.405C70.1844 116.856 71.7804 117.692 74.6114 118.376C77.0814 118.946 77.6134 119.459 77.6134 120.409V120.447C77.6134 121.454 76.7014 122.119 75.2574 122.119C73.6044 122.119 72.3314 121.492 71.0584 120.39L69.6524 122.062C71.2484 123.487 73.1674 124.19 75.2004 124.19ZM88.1518 124.209C91.6288 124.209 93.8708 122.214 93.8708 118.243V110.7H91.5338V118.357C91.5338 120.808 90.2608 122.062 88.1898 122.062C86.0998 122.062 84.8268 120.732 84.8268 118.262V110.7H82.4898V118.357C82.4898 122.214 84.6938 124.209 88.1518 124.209ZM95.4562 124H97.8502L99.2182 120.789H105.507L106.856 124H109.326L103.474 110.605H101.308L95.4562 124ZM100.073 118.718L102.353 113.398L104.652 118.718H100.073ZM111.607 124H120.936V121.872H113.944V110.7H111.607V124ZM123.504 124H125.841V110.7H123.504V124ZM129.401 124H134.36C138.54 124 141.428 121.093 141.428 117.35V117.312C141.428 113.569 138.54 110.7 134.36 110.7H129.401V124ZM131.738 121.872V112.828H134.36C137.153 112.828 138.977 114.747 138.977 117.35V117.388C138.977 119.991 137.153 121.872 134.36 121.872H131.738ZM142.214 124H144.608L145.976 120.789H152.265L153.614 124H156.084L150.232 110.605H148.066L142.214 124ZM146.831 118.718L149.111 113.398L151.41 118.718H146.831ZM158.365 124H163.324C167.504 124 170.392 121.093 170.392 117.35V117.312C170.392 113.569 167.504 110.7 163.324 110.7H158.365V124ZM160.702 121.872V112.828H163.324C166.117 112.828 167.941 114.747 167.941 117.35V117.388C167.941 119.991 166.117 121.872 163.324 121.872H160.702ZM173.227 124H183.183V121.91H175.564V118.338H182.233V116.248H175.564V112.79H183.088V110.7H173.227V124ZM190.611 124.19C193.404 124.19 195.361 122.708 195.361 120.219V120.181C195.361 117.977 193.898 116.97 191.086 116.286C188.54 115.678 187.932 115.222 187.932 114.196V114.158C187.932 113.284 188.73 112.581 190.098 112.581C191.314 112.581 192.511 113.056 193.708 113.949L194.962 112.182C193.613 111.099 192.074 110.51 190.136 110.51C187.495 110.51 185.595 112.087 185.595 114.367V114.405C185.595 116.856 187.191 117.692 190.022 118.376C192.492 118.946 193.024 119.459 193.024 120.409V120.447C193.024 121.454 192.112 122.119 190.668 122.119C189.015 122.119 187.742 121.492 186.469 120.39L185.063 122.062C186.659 123.487 188.578 124.19 190.611 124.19ZM42.6277 147.19C45.4207 147.19 47.3777 145.708 47.3777 143.219V143.181C47.3777 140.977 45.9147 139.97 43.1027 139.286C40.5567 138.678 39.9487 138.222 39.9487 137.196V137.158C39.9487 136.284 40.7467 135.581 42.1147 135.581C43.3307 135.581 44.5277 136.056 45.7247 136.949L46.9787 135.182C45.6297 134.099 44.0907 133.51 42.1527 133.51C39.5117 133.51 37.6117 135.087 37.6117 137.367V137.405C37.6117 139.856 39.2077 140.692 42.0387 141.376C44.5087 141.946 45.0407 142.459 45.0407 143.409V143.447C45.0407 144.454 44.1287 145.119 42.6847 145.119C41.0317 145.119 39.7587 144.492 38.4857 143.39L37.0797 145.062C38.6757 146.487 40.5947 147.19 42.6277 147.19ZM50.259 147H52.596V133.7H50.259V147ZM56.1563 147H58.4553V137.538L65.7893 147H67.7463V133.7H65.4473V142.896L58.3223 133.7H56.1563V147ZM76.9963 147H79.3333V133.7H76.9963V147ZM82.8936 147H85.1926V137.538L92.5266 147H94.4836V133.7H92.1846V142.896L85.0596 133.7H82.8936V147ZM101.172 147H103.528V135.866H107.746V133.7H96.9543V135.866H101.172V147ZM110.225 147H120.181V144.91H112.562V141.338H119.231V139.248H112.562V135.79H120.086V133.7H110.225V147ZM122.953 147H125.29V142.364H128.178H128.216L131.484 147H134.239L130.648 141.965C132.51 141.433 133.821 140.122 133.821 137.937V137.899C133.821 136.74 133.422 135.752 132.719 135.03C131.864 134.194 130.553 133.7 128.881 133.7H122.953V147ZM125.29 140.293V135.828H128.691C130.42 135.828 131.446 136.607 131.446 138.032V138.07C131.446 139.419 130.382 140.293 128.71 140.293H125.29ZM136.684 147H146.64V144.91H139.021V141.338H145.69V139.248H139.021V135.79H146.545V133.7H136.684V147ZM154.067 147.19C156.86 147.19 158.817 145.708 158.817 143.219V143.181C158.817 140.977 157.354 139.97 154.542 139.286C151.996 138.678 151.388 138.222 151.388 137.196V137.158C151.388 136.284 152.186 135.581 153.554 135.581C154.77 135.581 155.967 136.056 157.164 136.949L158.418 135.182C157.069 134.099 155.53 133.51 153.592 133.51C150.951 133.51 149.051 135.087 149.051 137.367V137.405C149.051 139.856 150.647 140.692 153.478 141.376C155.948 141.946 156.48 142.459 156.48 143.409V143.447C156.48 144.454 155.568 145.119 154.124 145.119C152.471 145.119 151.198 144.492 149.925 143.39L148.519 145.062C150.115 146.487 152.034 147.19 154.067 147.19ZM161.565 147H171.521V144.91H163.902V141.338H170.571V139.248H163.902V135.79H171.426V133.7H161.565V147ZM178.949 147.19C181.742 147.19 183.699 145.708 183.699 143.219V143.181C183.699 140.977 182.236 139.97 179.424 139.286C176.878 138.678 176.27 138.222 176.27 137.196V137.158C176.27 136.284 177.068 135.581 178.436 135.581C179.652 135.581 180.849 136.056 182.046 136.949L183.3 135.182C181.951 134.099 180.412 133.51 178.474 133.51C175.833 133.51 173.933 135.087 173.933 137.367V137.405C173.933 139.856 175.529 140.692 178.36 141.376C180.83 141.946 181.362 142.459 181.362 143.409V143.447C181.362 144.454 180.45 145.119 179.006 145.119C177.353 145.119 176.08 144.492 174.807 143.39L173.401 145.062C174.997 146.487 176.916 147.19 178.949 147.19Z" fill="white"/>
</g>
<defs>
<filter id="filter0_d" x="24.311" y="4.50977" width="173.05" height="146.68" filterUnits="userSpaceOnUse" color-interpolation-filters="sRGB">
<feFlood flood-opacity="0" result="BackgroundImageFix"/>
<feColorMatrix in="SourceAlpha" type="matrix" values="0 0 0 0 0 0 0 0 0 0 0 0 0 0 0 0 0 0 127 0"/>
<feOffset dy="2"/>
<feGaussianBlur stdDeviation="1"/>
<feColorMatrix type="matrix" values="0 0 0 0 0.329412 0 0 0 0 0.278431 0 0 0 0 0.439216 0 0 0 0.6 0"/>
<feBlend mode="normal" in2="BackgroundImageFix" result="effect1_dropShadow"/>
<feBlend mode="normal" in="SourceGraphic" in2="effect1_dropShadow" result="shape"/>
</filter>
</defs>
</svg>
