<svg width="585" height="154" viewBox="0 0 585 154" fill="none" xmlns="http://www.w3.org/2000/svg">
<path d="M502.465 86.4686C511.045 86.4686 516.325 81.1336 516.325 73.8736V73.7636C516.325 66.6136 511.21 63.8636 505.985 62.9836L515.72 53.6886V47.3086H489.705V54.5686H504.83L495.645 63.8086L496.965 69.1986H500.485C505.215 69.1986 508.02 70.9586 508.02 74.0936V74.2036C508.02 77.0636 505.765 78.8786 502.575 78.8786C498.67 78.8786 495.92 77.2286 493.28 74.2586L487.45 79.8136C490.75 83.7186 495.535 86.4686 502.465 86.4686ZM530.136 56.3286H521.171L531.126 70.8486L520.786 85.8086H529.531L535.471 76.6236L541.411 85.8086H550.376L539.981 70.7386L549.936 56.3286H541.191L535.636 64.9636L530.136 56.3286Z" fill="#FEC818"/>
<path d="M479.269 125.809H481.606V121.534H484.247C487.173 121.534 489.567 119.976 489.567 116.993V116.955C489.567 114.276 487.61 112.509 484.513 112.509H479.269V125.809ZM481.606 119.425V114.637H484.323C486.071 114.637 487.192 115.454 487.192 117.012V117.05C487.192 118.437 486.09 119.425 484.323 119.425H481.606ZM497.413 126.018C500.89 126.018 503.132 124.023 503.132 120.052V112.509H500.795V120.166C500.795 122.617 499.522 123.871 497.451 123.871C495.361 123.871 494.088 122.541 494.088 120.071V112.509H491.751V120.166C491.751 124.023 493.955 126.018 497.413 126.018ZM506.34 125.809H508.639V116.347L515.973 125.809H517.93V112.509H515.631V121.705L508.506 112.509H506.34V125.809ZM524.619 125.809H526.975V114.675H531.193V112.509H520.401V114.675H524.619V125.809ZM539.294 126.037C543.379 126.037 546.267 122.902 546.267 119.159V119.121C546.267 115.378 543.417 112.281 539.332 112.281C535.247 112.281 532.359 115.416 532.359 119.159V119.197C532.359 122.94 535.209 126.037 539.294 126.037ZM539.332 123.89C536.691 123.89 534.81 121.743 534.81 119.159V119.121C534.81 116.537 536.653 114.428 539.294 114.428C541.935 114.428 543.816 116.575 543.816 119.159V119.197C543.816 121.781 541.973 123.89 539.332 123.89ZM553.653 125.999C556.446 125.999 558.403 124.517 558.403 122.028V121.99C558.403 119.786 556.94 118.779 554.128 118.095C551.582 117.487 550.974 117.031 550.974 116.005V115.967C550.974 115.093 551.772 114.39 553.14 114.39C554.356 114.39 555.553 114.865 556.75 115.758L558.004 113.991C556.655 112.908 555.116 112.319 553.178 112.319C550.537 112.319 548.637 113.896 548.637 116.176V116.214C548.637 118.665 550.233 119.501 553.064 120.185C555.534 120.755 556.066 121.268 556.066 122.218V122.256C556.066 123.263 555.154 123.928 553.71 123.928C552.057 123.928 550.784 123.301 549.511 122.199L548.105 123.871C549.701 125.296 551.62 125.999 553.653 125.999ZM469.918 148.809H472.255V144.534H474.896C477.822 144.534 480.216 142.976 480.216 139.993V139.955C480.216 137.276 478.259 135.509 475.162 135.509H469.918V148.809ZM472.255 142.425V137.637H474.972C476.72 137.637 477.841 138.454 477.841 140.012V140.05C477.841 141.437 476.739 142.425 474.972 142.425H472.255ZM480.133 148.809H482.527L483.895 145.598H490.184L491.533 148.809H494.003L488.151 135.414H485.985L480.133 148.809ZM484.75 143.527L487.03 138.207L489.329 143.527H484.75ZM496.284 148.809H505.613V146.681H498.621V135.509H496.284V148.809ZM506.907 148.809H509.301L510.669 145.598H516.958L518.307 148.809H520.777L514.925 135.414H512.759L506.907 148.809ZM511.524 143.527L513.804 138.207L516.103 143.527H511.524ZM528.417 149.037C530.906 149.037 532.426 148.125 533.813 146.681L532.312 145.161C531.172 146.225 530.127 146.89 528.493 146.89C525.947 146.89 524.104 144.762 524.104 142.159V142.121C524.104 139.518 525.947 137.428 528.493 137.428C530.013 137.428 531.153 138.093 532.217 139.081L533.718 137.352C532.445 136.136 530.963 135.281 528.512 135.281C524.484 135.281 521.653 138.378 521.653 142.159V142.197C521.653 146.016 524.541 149.037 528.417 149.037ZM536.402 148.809H538.739V135.509H536.402V148.809ZM548.645 149.037C552.73 149.037 555.618 145.902 555.618 142.159V142.121C555.618 138.378 552.768 135.281 548.683 135.281C544.598 135.281 541.71 138.416 541.71 142.159V142.197C541.71 145.94 544.56 149.037 548.645 149.037ZM548.683 146.89C546.042 146.89 544.161 144.743 544.161 142.159V142.121C544.161 139.537 546.004 137.428 548.645 137.428C551.286 137.428 553.167 139.575 553.167 142.159V142.197C553.167 144.781 551.324 146.89 548.683 146.89ZM563.004 148.999C565.797 148.999 567.754 147.517 567.754 145.028V144.99C567.754 142.786 566.291 141.779 563.479 141.095C560.933 140.487 560.325 140.031 560.325 139.005V138.967C560.325 138.093 561.123 137.39 562.491 137.39C563.707 137.39 564.904 137.865 566.101 138.758L567.355 136.991C566.006 135.908 564.467 135.319 562.529 135.319C559.888 135.319 557.988 136.896 557.988 139.176V139.214C557.988 141.665 559.584 142.501 562.415 143.185C564.885 143.755 565.417 144.268 565.417 145.218V145.256C565.417 146.263 564.505 146.928 563.061 146.928C561.408 146.928 560.135 146.301 558.862 145.199L557.456 146.871C559.052 148.296 560.971 148.999 563.004 148.999Z" fill="white"/>
<path d="M30.3394 18H32.6764V12.395H39.0224V18H41.3594V4.7H39.0224V10.229H32.6764V4.7H30.3394V18ZM43.6349 18H46.0289L47.3969 14.789H53.6859L55.0349 18H57.5049L51.6529 4.605H49.4869L43.6349 18ZM48.2519 12.718L50.5319 7.398L52.8309 12.718H48.2519ZM64.2366 18.19C67.0296 18.19 68.9866 16.708 68.9866 14.219V14.181C68.9866 11.977 67.5236 10.97 64.7116 10.286C62.1656 9.678 61.5576 9.222 61.5576 8.196V8.158C61.5576 7.284 62.3556 6.581 63.7236 6.581C64.9396 6.581 66.1366 7.056 67.3336 7.949L68.5876 6.182C67.2386 5.099 65.6996 4.51 63.7616 4.51C61.1206 4.51 59.2206 6.087 59.2206 8.367V8.405C59.2206 10.856 60.8166 11.692 63.6476 12.376C66.1176 12.946 66.6496 13.459 66.6496 14.409V14.447C66.6496 15.454 65.7376 16.119 64.2936 16.119C62.6406 16.119 61.3676 15.492 60.0946 14.39L58.6886 16.062C60.2846 17.487 62.2036 18.19 64.2366 18.19ZM74.7246 18H77.0806V6.866H81.2986V4.7H70.5066V6.866H74.7246V18ZM80.9299 18H83.3239L84.6919 14.789H90.9809L92.3299 18H94.7999L88.9479 4.605H86.7819L80.9299 18ZM85.5469 12.718L87.8269 7.398L90.1259 12.718H85.5469ZM47.0664 124H52.0254C56.2054 124 59.0934 121.093 59.0934 117.35V117.312C59.0934 113.569 56.2054 110.7 52.0254 110.7H47.0664V124ZM49.4034 121.872V112.828H52.0254C54.8184 112.828 56.6424 114.747 56.6424 117.35V117.388C56.6424 119.991 54.8184 121.872 52.0254 121.872H49.4034ZM61.9288 124H71.8848V121.91H64.2658V118.338H70.9348V116.248H64.2658V112.79H71.7898V110.7H61.9288V124ZM1.89506 147H6.85406C11.0341 147 13.9221 144.093 13.9221 140.35V140.312C13.9221 136.569 11.0341 133.7 6.85406 133.7H1.89506V147ZM4.23206 144.872V135.828H6.85406C9.64706 135.828 11.4711 137.747 11.4711 140.35V140.388C11.4711 142.991 9.64706 144.872 6.85406 144.872H4.23206ZM16.7574 147H26.7134V144.91H19.0944V141.338H25.7634V139.248H19.0944V135.79H26.6184V133.7H16.7574V147ZM34.1409 147.19C36.9339 147.19 38.8909 145.708 38.8909 143.219V143.181C38.8909 140.977 37.4279 139.97 34.6159 139.286C32.0699 138.678 31.4619 138.222 31.4619 137.196V137.158C31.4619 136.284 32.2599 135.581 33.6279 135.581C34.8439 135.581 36.0409 136.056 37.2379 136.949L38.4919 135.182C37.1429 134.099 35.6039 133.51 33.6659 133.51C31.0249 133.51 29.1249 135.087 29.1249 137.367V137.405C29.1249 139.856 30.7209 140.692 33.5519 141.376C36.0219 141.946 36.5539 142.459 36.5539 143.409V143.447C36.5539 144.454 35.6419 145.119 34.1979 145.119C32.5449 145.119 31.2719 144.492 29.9989 143.39L28.5929 145.062C30.1889 146.487 32.1079 147.19 34.1409 147.19ZM47.8142 147.228C50.3032 147.228 51.8232 146.316 53.2102 144.872L51.7092 143.352C50.5692 144.416 49.5242 145.081 47.8902 145.081C45.3442 145.081 43.5012 142.953 43.5012 140.35V140.312C43.5012 137.709 45.3442 135.619 47.8902 135.619C49.4102 135.619 50.5502 136.284 51.6142 137.272L53.1152 135.543C51.8422 134.327 50.3602 133.472 47.9092 133.472C43.8812 133.472 41.0502 136.569 41.0502 140.35V140.388C41.0502 144.207 43.9382 147.228 47.8142 147.228ZM61.1195 147.209C64.5965 147.209 66.8385 145.214 66.8385 141.243V133.7H64.5015V141.357C64.5015 143.808 63.2285 145.062 61.1575 145.062C59.0675 145.062 57.7945 143.732 57.7945 141.262V133.7H55.4575V141.357C55.4575 145.214 57.6615 147.209 61.1195 147.209ZM70.0464 147H80.0024V144.91H72.3834V141.338H79.0524V139.248H72.3834V135.79H79.9074V133.7H70.0464V147ZM82.7749 147H85.0739V137.538L92.4079 147H94.3649V133.7H92.0659V142.896L84.9409 133.7H82.7749V147ZM101.054 147H103.41V135.866H107.628V133.7H96.8357V135.866H101.054V147ZM115.728 147.228C119.813 147.228 122.701 144.093 122.701 140.35V140.312C122.701 136.569 119.851 133.472 115.766 133.472C111.681 133.472 108.793 136.607 108.793 140.35V140.388C108.793 144.131 111.643 147.228 115.728 147.228ZM115.766 145.081C113.125 145.081 111.244 142.934 111.244 140.35V140.312C111.244 137.728 113.087 135.619 115.728 135.619C118.369 135.619 120.25 137.766 120.25 140.35V140.388C120.25 142.972 118.407 145.081 115.766 145.081Z" fill="white"/>
<path d="M18.6894 84.66C27.0494 84.66 33.3744 79.215 33.3744 71.35V71.24C33.3744 63.21 27.4894 58.975 19.8444 58.975C16.3244 58.975 13.9044 60.075 11.8694 61.45C12.1444 58.095 13.8494 52.54 19.6244 52.54C22.9244 52.54 24.9594 53.695 27.4894 55.62L31.9444 49.075C28.5344 46.38 25.1244 44.84 19.8994 44.84C8.40443 44.84 3.01443 53.97 3.01443 65.85V65.96C3.01443 73.605 4.77443 77.73 7.57943 80.535C10.2744 83.23 13.6844 84.66 18.6894 84.66ZM18.3594 77.4C14.1794 77.4 11.6494 74.925 11.6494 71.68V71.57C11.6494 68.325 14.0694 66.015 18.2494 66.015C22.4294 66.015 24.9594 68.38 24.9594 71.625V71.735C24.9594 75.035 22.5394 77.4 18.3594 77.4ZM56.4805 84.66C66.7654 84.66 73.6405 75.915 73.6405 64.75V64.64C73.6405 53.475 66.7654 44.84 56.5905 44.84C46.3604 44.84 39.4304 53.585 39.4304 64.75V64.86C39.4304 76.025 46.1954 84.66 56.4805 84.66ZM56.5905 77.015C51.4754 77.015 48.1204 71.79 48.1204 64.75V64.64C48.1204 57.6 51.4205 52.485 56.4805 52.485C61.5405 52.485 64.9504 57.765 64.9504 64.75V64.86C64.9504 71.845 61.7055 77.015 56.5905 77.015ZM88.4062 64.75C94.0162 64.75 97.8112 60.295 97.8112 54.905V54.795C97.8112 49.405 94.0712 45.06 88.5162 45.06C82.9062 45.06 79.1112 49.46 79.1112 54.905V55.015C79.1112 60.405 82.8512 64.75 88.4062 64.75ZM88.4062 50.065C90.6062 50.065 92.0362 52.32 92.0362 54.905V55.015C92.0362 57.49 90.8262 59.745 88.5162 59.745C86.3162 59.745 84.8862 57.49 84.8862 54.905V54.795C84.8862 52.265 86.0962 50.065 88.4062 50.065ZM98.3612 63.265L82.9612 84H89.5062L102.211 66.235L117.611 45.5H111.066L98.3612 63.265ZM112.056 84.44C117.666 84.44 121.461 79.985 121.461 74.595V74.485C121.461 69.095 117.721 64.75 112.166 64.75C106.556 64.75 102.761 69.15 102.761 74.595V74.705C102.761 80.095 106.501 84.44 112.056 84.44ZM112.166 79.435C109.966 79.435 108.536 77.18 108.536 74.595V74.485C108.536 71.955 109.746 69.755 112.056 69.755C114.256 69.755 115.686 72.01 115.686 74.595V74.705C115.686 77.18 114.476 79.435 112.166 79.435Z" fill="#FEC818"/>
<path d="M265.339 18H267.676V12.395H274.022V18H276.359V4.7H274.022V10.229H267.676V4.7H265.339V18ZM278.635 18H281.029L282.397 14.789H288.686L290.035 18H292.505L286.653 4.605H284.487L278.635 18ZM283.252 12.718L285.532 7.398L287.831 12.718H283.252ZM299.237 18.19C302.03 18.19 303.987 16.708 303.987 14.219V14.181C303.987 11.977 302.524 10.97 299.712 10.286C297.166 9.678 296.558 9.222 296.558 8.196V8.158C296.558 7.284 297.356 6.581 298.724 6.581C299.94 6.581 301.137 7.056 302.334 7.949L303.588 6.182C302.239 5.099 300.7 4.51 298.762 4.51C296.121 4.51 294.221 6.087 294.221 8.367V8.405C294.221 10.856 295.817 11.692 298.648 12.376C301.118 12.946 301.65 13.459 301.65 14.409V14.447C301.65 15.454 300.738 16.119 299.294 16.119C297.641 16.119 296.368 15.492 295.095 14.39L293.689 16.062C295.285 17.487 297.204 18.19 299.237 18.19ZM309.725 18H312.081V6.866H316.299V4.7H305.507V6.866H309.725V18ZM315.93 18H318.324L319.692 14.789H325.981L327.33 18H329.8L323.948 4.605H321.782L315.93 18ZM320.547 12.718L322.827 7.398L325.126 12.718H320.547ZM209.963 124H212.262V114.5L216.423 120.732H216.499L220.698 114.462V124H223.035V110.7H220.546L216.499 116.989L212.452 110.7H209.963V124ZM226.458 124H236.414V121.91H228.795V118.338H235.464V116.248H228.795V112.79H236.319V110.7H226.458V124ZM239.187 124H241.486V114.538L248.82 124H250.777V110.7H248.478V119.896L241.353 110.7H239.187V124ZM258.852 124.19C261.645 124.19 263.602 122.708 263.602 120.219V120.181C263.602 117.977 262.139 116.97 259.327 116.286C256.781 115.678 256.173 115.222 256.173 114.196V114.158C256.173 113.284 256.971 112.581 258.339 112.581C259.555 112.581 260.752 113.056 261.949 113.949L263.203 112.182C261.854 111.099 260.315 110.51 258.377 110.51C255.736 110.51 253.836 112.087 253.836 114.367V114.405C253.836 116.856 255.432 117.692 258.263 118.376C260.733 118.946 261.265 119.459 261.265 120.409V120.447C261.265 121.454 260.353 122.119 258.909 122.119C257.256 122.119 255.983 121.492 254.71 120.39L253.304 122.062C254.9 123.487 256.819 124.19 258.852 124.19ZM271.804 124.209C275.281 124.209 277.523 122.214 277.523 118.243V110.7H275.186V118.357C275.186 120.808 273.913 122.062 271.842 122.062C269.752 122.062 268.479 120.732 268.479 118.262V110.7H266.142V118.357C266.142 122.214 268.346 124.209 271.804 124.209ZM279.108 124H281.502L282.87 120.789H289.159L290.508 124H292.978L287.126 110.605H284.96L279.108 124ZM283.725 118.718L286.005 113.398L288.304 118.718H283.725ZM295.259 124H304.588V121.872H297.596V110.7H295.259V124ZM307.156 124H309.493V110.7H307.156V124ZM313.053 124H318.012C322.192 124 325.08 121.093 325.08 117.35V117.312C325.08 113.569 322.192 110.7 318.012 110.7H313.053V124ZM315.39 121.872V112.828H318.012C320.805 112.828 322.629 114.747 322.629 117.35V117.388C322.629 119.991 320.805 121.872 318.012 121.872H315.39ZM325.866 124H328.26L329.628 120.789H335.917L337.266 124H339.736L333.884 110.605H331.718L325.866 124ZM330.483 118.718L332.763 113.398L335.062 118.718H330.483ZM342.017 124H346.976C351.156 124 354.044 121.093 354.044 117.35V117.312C354.044 113.569 351.156 110.7 346.976 110.7H342.017V124ZM344.354 121.872V112.828H346.976C349.769 112.828 351.593 114.747 351.593 117.35V117.388C351.593 119.991 349.769 121.872 346.976 121.872H344.354ZM356.879 124H366.835V121.91H359.216V118.338H365.885V116.248H359.216V112.79H366.74V110.7H356.879V124ZM374.262 124.19C377.055 124.19 379.012 122.708 379.012 120.219V120.181C379.012 117.977 377.549 116.97 374.737 116.286C372.191 115.678 371.583 115.222 371.583 114.196V114.158C371.583 113.284 372.381 112.581 373.749 112.581C374.965 112.581 376.162 113.056 377.359 113.949L378.613 112.182C377.264 111.099 375.725 110.51 373.787 110.51C371.146 110.51 369.246 112.087 369.246 114.367V114.405C369.246 116.856 370.842 117.692 373.673 118.376C376.143 118.946 376.675 119.459 376.675 120.409V120.447C376.675 121.454 375.763 122.119 374.319 122.119C372.666 122.119 371.393 121.492 370.12 120.39L368.714 122.062C370.31 123.487 372.229 124.19 374.262 124.19ZM229.128 147.19C231.921 147.19 233.878 145.708 233.878 143.219V143.181C233.878 140.977 232.415 139.97 229.603 139.286C227.057 138.678 226.449 138.222 226.449 137.196V137.158C226.449 136.284 227.247 135.581 228.615 135.581C229.831 135.581 231.028 136.056 232.225 136.949L233.479 135.182C232.13 134.099 230.591 133.51 228.653 133.51C226.012 133.51 224.112 135.087 224.112 137.367V137.405C224.112 139.856 225.708 140.692 228.539 141.376C231.009 141.946 231.541 142.459 231.541 143.409V143.447C231.541 144.454 230.629 145.119 229.185 145.119C227.532 145.119 226.259 144.492 224.986 143.39L223.58 145.062C225.176 146.487 227.095 147.19 229.128 147.19ZM236.759 147H239.096V133.7H236.759V147ZM242.656 147H244.955V137.538L252.289 147H254.246V133.7H251.947V142.896L244.822 133.7H242.656V147ZM263.496 147H265.833V133.7H263.496V147ZM269.394 147H271.693V137.538L279.027 147H280.984V133.7H278.685V142.896L271.56 133.7H269.394V147ZM287.672 147H290.028V135.866H294.246V133.7H283.454V135.866H287.672V147ZM296.725 147H306.681V144.91H299.062V141.338H305.731V139.248H299.062V135.79H306.586V133.7H296.725V147ZM309.453 147H311.79V142.364H314.678H314.716L317.984 147H320.739L317.148 141.965C319.01 141.433 320.321 140.122 320.321 137.937V137.899C320.321 136.74 319.922 135.752 319.219 135.03C318.364 134.194 317.053 133.7 315.381 133.7H309.453V147ZM311.79 140.293V135.828H315.191C316.92 135.828 317.946 136.607 317.946 138.032V138.07C317.946 139.419 316.882 140.293 315.21 140.293H311.79ZM323.184 147H333.14V144.91H325.521V141.338H332.19V139.248H325.521V135.79H333.045V133.7H323.184V147ZM340.567 147.19C343.36 147.19 345.317 145.708 345.317 143.219V143.181C345.317 140.977 343.854 139.97 341.042 139.286C338.496 138.678 337.888 138.222 337.888 137.196V137.158C337.888 136.284 338.686 135.581 340.054 135.581C341.27 135.581 342.467 136.056 343.664 136.949L344.918 135.182C343.569 134.099 342.03 133.51 340.092 133.51C337.451 133.51 335.551 135.087 335.551 137.367V137.405C335.551 139.856 337.147 140.692 339.978 141.376C342.448 141.946 342.98 142.459 342.98 143.409V143.447C342.98 144.454 342.068 145.119 340.624 145.119C338.971 145.119 337.698 144.492 336.425 143.39L335.019 145.062C336.615 146.487 338.534 147.19 340.567 147.19ZM348.065 147H358.021V144.91H350.402V141.338H357.071V139.248H350.402V135.79H357.926V133.7H348.065V147ZM365.449 147.19C368.242 147.19 370.199 145.708 370.199 143.219V143.181C370.199 140.977 368.736 139.97 365.924 139.286C363.378 138.678 362.77 138.222 362.77 137.196V137.158C362.77 136.284 363.568 135.581 364.936 135.581C366.152 135.581 367.349 136.056 368.546 136.949L369.8 135.182C368.451 134.099 366.912 133.51 364.974 133.51C362.333 133.51 360.433 135.087 360.433 137.367V137.405C360.433 139.856 362.029 140.692 364.86 141.376C367.33 141.946 367.862 142.459 367.862 143.409V143.447C367.862 144.454 366.95 145.119 365.506 145.119C363.853 145.119 362.58 144.492 361.307 143.39L359.901 145.062C361.497 146.487 363.416 147.19 365.449 147.19Z" fill="white"/>
<path d="M278.055 84H286.415V45.225H280.64L269.585 48.525L271.345 55.455L278.055 53.805V84ZM294.163 84H322.653V76.685H305.878L312.148 71.845C318.968 66.565 322.268 63.375 322.268 56.94V56.83C322.268 49.625 316.988 44.95 309.013 44.95C302.138 44.95 298.453 47.755 294.658 52.925L300.598 57.71C303.458 54.19 305.493 52.54 308.463 52.54C311.488 52.54 313.633 54.3 313.633 57.545C313.633 60.735 311.763 62.825 306.978 66.785L294.163 77.29V84Z" fill="#FEC818"/>
</svg>
